<?xml version="1.0" encoding="UTF-8"?>
<svg version="1.1" xmlns="http://www.w3.org/2000/svg" width="460" height="460">
<path d="M0 0 C0.80969238 0.24766113 1.61938477 0.49532227 2.45361328 0.75048828 C13.87346647 4.27450946 24.49997326 8.23975515 35 14 C35.92554688 14.48082031 36.85109375 14.96164063 37.8046875 15.45703125 C45.50090659 19.50591173 52.76253991 24.19336178 60 29 C61.02738281 29.680625 62.05476563 30.36125 63.11328125 31.0625 C68.28658036 34.57478228 68.28658036 34.57478228 70 36 C70 36.66 70 37.32 70 38 C70.54785156 38.23074219 71.09570312 38.46148437 71.66015625 38.69921875 C74.66213914 40.36810072 76.9173198 42.48107116 79.4375 44.8125 C80.36433594 45.66457031 81.29117187 46.51664063 82.24609375 47.39453125 C86.81001234 51.71245139 91.14286051 56.04082066 95 61 C95 61.66 95 62.32 95 63 C95.57363281 63.22171875 96.14726562 63.4434375 96.73828125 63.671875 C109.56060663 71.20139249 119.13340401 94.2922733 126 107 C126.85271484 108.5778125 126.85271484 108.5778125 127.72265625 110.1875 C131.00992182 116.50981128 133.54305981 122.92637284 135.82421875 129.67578125 C136.94957363 133.01532008 136.94957363 133.01532008 138.45703125 136.1796875 C140.64178943 141.19235117 141.75671896 146.50512591 143 151.8125 C143.39191528 153.46995239 143.39191528 153.46995239 143.79174805 155.16088867 C145.30598239 161.68319917 146.70185962 168.20898703 147.8125 174.8125 C147.97975586 175.80310425 147.97975586 175.80310425 148.15039062 176.8137207 C154.12084101 214.89435607 148.60676257 255.8163335 133 291 C132.55914062 292.00417969 132.11828125 293.00835937 131.6640625 294.04296875 C120.69293431 318.44009083 120.69293431 318.44009083 113.2890625 327.359375 C111.89932356 329.05557844 111.89932356 329.05557844 110.6171875 331.32421875 C105.71275191 339.43904576 99.35907005 346.80037632 93 353.8125 C92.53142578 354.33400635 92.06285156 354.8555127 91.58007812 355.39282227 C90.43029178 356.63694681 89.21991611 357.82456 88 359 C87.34 359 86.68 359 86 359 C85.78601563 359.54914063 85.57203125 360.09828125 85.3515625 360.6640625 C83.53789178 363.79867258 81.04912008 365.99082988 78.375 368.375 C77.83955566 368.85815674 77.30411133 369.34131348 76.75244141 369.83911133 C65.3783887 380 65.3783887 380 62 380 C62 380.66 62 381.32 62 382 C60.11343967 383.42116714 58.24757754 384.68714122 56.25 385.9375 C55.63020264 386.3279248 55.01040527 386.71834961 54.37182617 387.12060547 C40.55417374 395.70289356 26.75388479 403.07892644 11.29394531 408.22363281 C9.05203528 408.98238908 6.83521511 409.79152747 4.6171875 410.6171875 C-11.52160996 416.50161354 -28.82679015 419.5894139 -46 420 C-46.8240332 420.02046387 -47.64806641 420.04092773 -48.49707031 420.06201172 C-90.70794245 420.96535723 -133.8230026 412.03393062 -168.7734375 387.2265625 C-172.10032284 384.93076996 -175.46756409 382.95848978 -179 381 C-179 380.34 -179 379.68 -179 379 C-179.69222656 378.77828125 -180.38445312 378.5565625 -181.09765625 378.328125 C-184.71553401 376.67256856 -187.47458262 374.34971027 -190.4375 371.75 C-191.04150635 371.22567383 -191.6455127 370.70134766 -192.26782227 370.16113281 C-209.97086608 354.5888626 -224.71453587 337.12327923 -237 317 C-237.49886719 316.21753906 -237.99773437 315.43507813 -238.51171875 314.62890625 C-243.03079889 307.40549469 -246.60286342 299.79573041 -250 292 C-250.2902002 291.34064453 -250.58040039 290.68128906 -250.87939453 290.00195312 C-261.9210721 264.52779806 -267.18817668 237.32417369 -267.18530273 209.66821289 C-267.18747998 207.33395885 -267.20567636 205.00018604 -267.22460938 202.66601562 C-267.28149691 188.084133 -265.59634626 174.21248616 -262.1875 160 C-261.92106689 158.87770996 -261.65463379 157.75541992 -261.38012695 156.59912109 C-252.85449851 121.26956852 -234.95265724 82.34468621 -208 57 C-207.34 57 -206.68 57 -206 57 C-205.731875 56.401875 -205.46375 55.80375 -205.1875 55.1875 C-204.00082594 53.00152146 -202.90400887 51.58667406 -201 50 C-200.34 50 -199.68 50 -199 50 C-199 49.34 -199 48.68 -199 48 C-198.34 48 -197.68 48 -197 48 C-197 47.34 -197 46.68 -197 46 C-195.00715862 44.6559907 -193.00580329 43.32458708 -191 42 C-190.195625 41.195625 -189.39125 40.39125 -188.5625 39.5625 C-185.56358554 36.56358554 -182.53905961 34.33711484 -179 32 C-178.34 32 -177.68 32 -177 32 C-177 31.34 -177 30.68 -177 30 C-174.75849376 28.3595846 -172.5321169 26.85337913 -170.1875 25.375 C-169.54490234 24.95476563 -168.90230469 24.53453125 -168.24023438 24.1015625 C-163.38145546 21 -163.38145546 21 -160 21 C-160 20.34 -160 19.68 -160 19 C-111.25477294 -6.47205678 -53.43652167 -16.67603239 0 0 Z M-95 5 C-95.74781738 5.12858398 -96.49563477 5.25716797 -97.26611328 5.38964844 C-131.79475397 11.66177961 -164.20903014 29.25906564 -189.78125 52.9921875 C-191.32978959 54.39350678 -192.93349309 55.73517893 -194.57421875 57.02734375 C-196.75689704 58.80230757 -198.50308247 60.54583211 -200.3125 62.6875 C-203.62459818 66.57593245 -207.04172418 70.35474322 -210.49609375 74.1171875 C-212.20803393 75.85882884 -212.20803393 75.85882884 -212 78 C-212.99 78.33 -213.98 78.66 -215 79 C-216.54821131 81.12031225 -217.94349012 83.20641365 -219.3125 85.4375 C-219.71130371 86.07349121 -220.11010742 86.70948242 -220.52099609 87.36474609 C-221.69072675 89.23716517 -222.84774192 91.11678951 -224 93 C-224.55300781 93.90105469 -225.10601562 94.80210938 -225.67578125 95.73046875 C-226.64654954 97.33446056 -227.6061243 98.94527749 -228.5546875 100.5625 C-229.52923935 102.20606852 -230.53548457 103.83119992 -231.5703125 105.4375 C-245.98979432 128.50867092 -253.74980271 156.17000227 -257 183 C-257.0928125 183.66362549 -257.185625 184.32725098 -257.28125 185.01098633 C-264.12465232 237.62575185 -246.76746281 291.25819272 -215 333 C-208.35430682 341.51401497 -201.11822139 349.85539247 -193 357 C-192.34 357 -191.68 357 -191 357 C-191 357.66 -191 358.32 -191 359 C-190.34 359 -189.68 359 -189 359 C-188.75121094 359.59296875 -188.50242187 360.1859375 -188.24609375 360.796875 C-186.81209668 363.33221779 -185.39167403 364.51470217 -183.0625 366.25 C-182.25425781 366.85457031 -181.44601563 367.45914062 -180.61328125 368.08203125 C-179.75089844 368.71496094 -178.88851562 369.34789062 -178 370 C-177.14792969 370.64324219 -176.29585938 371.28648437 -175.41796875 371.94921875 C-160.05702141 383.39683544 -143.64408591 392.26101736 -125.62109375 398.67578125 C-122 400 -122 400 -118.66796875 401.51171875 C-86.86325926 414.41650503 -48.97753192 413.24687043 -16 407 C-15.25073242 406.8664209 -14.50146484 406.7328418 -13.72949219 406.59521484 C-3.9267733 404.79604261 5.24414283 401.15214992 14.5 397.5625 C16.3097229 396.86241821 16.3097229 396.86241821 18.15600586 396.14819336 C23.88407891 393.86647297 29.22917245 391.52009703 34.36279297 388.09204102 C36.58795431 386.60782588 38.93612459 385.41079745 41.3125 384.1875 C47.28436233 380.95547561 52.61636352 377.12393592 58 373 C58.60408691 372.54334961 59.20817383 372.08669922 59.83056641 371.61621094 C61.76900079 370.14883905 63.69824542 368.67016623 65.625 367.1875 C66.24157471 366.71932861 66.85814941 366.25115723 67.4934082 365.76879883 C71.07408792 363.01403214 71.07408792 363.01403214 73 359 C73.66 359 74.32 359 75 359 C75 358.34 75 357.68 75 357 C75.556875 356.773125 76.11375 356.54625 76.6875 356.3125 C79.66159588 354.62449964 81.72008865 352.53323483 84 350 C84 349.34 84 348.68 84 348 C84.66 348 85.32 348 86 348 C86 347.34 86 346.68 86 346 C86.59296875 345.75121094 87.1859375 345.50242187 87.796875 345.24609375 C90.33221779 343.81209668 91.51470217 342.39167403 93.25 340.0625 C93.85457031 339.25425781 94.45914062 338.44601562 95.08203125 337.61328125 C95.71496094 336.75089844 96.34789062 335.88851563 97 335 C97.64324219 334.14792969 98.28648437 333.29585938 98.94921875 332.41796875 C132.8664903 286.90618787 146.59592302 231.16621739 139 175 C135.65298843 156.97535156 131.11145258 138.5011344 123 122 C122.55068115 121.08081787 122.55068115 121.08081787 122.09228516 120.14306641 C120.07398814 116.02292193 118.02125687 111.9216365 115.93603516 107.83496094 C115.14323943 106.28080009 114.35790098 104.72283867 113.57421875 103.1640625 C110.34389153 96.97021975 106.58478583 91.14405042 102.75 85.3125 C102.21793945 84.49668457 101.68587891 83.68086914 101.13769531 82.84033203 C100.63334961 82.08478027 100.12900391 81.32922852 99.609375 80.55078125 C99.15530273 79.86669189 98.70123047 79.18260254 98.23339844 78.4777832 C97.82637695 77.99011475 97.41935547 77.50244629 97 77 C96.34 77 95.68 77 95 77 C94.773125 76.484375 94.54625 75.96875 94.3125 75.4375 C91.31018623 69.86177442 87.98171462 65.91420434 83 62 C81.18677515 60.02801353 79.44770149 58.00156087 77.703125 55.96875 C73.56340936 51.0103656 73.56340936 51.0103656 68 48 C68 47.34 68 46.68 68 46 C64.36676311 43.03764305 64.36676311 43.03764305 60 42 C60 41.34 60 40.68 60 40 C57.69800663 38.30647623 55.39879643 36.7328347 53 35.1875 C52.35160156 34.76146484 51.70320313 34.33542969 51.03515625 33.89648438 C49.03131264 32.58505801 47.01664117 31.2916413 45 30 C44.36263916 29.58314941 43.72527832 29.16629883 43.06860352 28.73681641 C37.88401758 25.39962667 32.50561965 22.64009206 26.9375 20 C26.01936523 19.56357178 25.10123047 19.12714355 24.15527344 18.67749023 C16.57841222 15.14210618 8.99558928 12.41875703 1 10 C-0.4246411 9.50176486 -1.84910846 9.00303278 -3.2734375 8.50390625 C-8.23296255 6.84252819 -13.23718188 5.81945186 -18.375 4.875 C-19.67824219 4.62169922 -19.67824219 4.62169922 -21.0078125 4.36328125 C-45.09657403 -0.1622701 -70.93570995 0.80889877 -95 5 Z " fill="currentColor" transform="translate(288,24)"/>
<path d="M0 0 C2 1.125 2 1.125 3 3 C3.60839155 6.99800164 3.33251303 8.52201252 1 11.875 C0.34 12.57625 -0.32 13.2775 -1 14 C0.32 14.99 1.64 15.98 3 17 C3.33 15.68 3.66 14.36 4 13 C5.32 13 6.64 13 8 13 C7.89300781 13.67546875 7.78601563 14.3509375 7.67578125 15.046875 C7.55589844 15.93890625 7.43601563 16.8309375 7.3125 17.75 C7.18488281 18.63171875 7.05726563 19.5134375 6.92578125 20.421875 C7.01602809 23.55676517 7.92615363 24.71823587 10 27 C7 27 4 27 1 27 C-0.45919491 27.20221053 -1.91747323 27.41109675 -3.375 27.625 C-9.81528959 28.31615303 -9.81528959 28.31615303 -13 26 C-14.5 22.6875 -14.5 22.6875 -15 19 C-13.67765243 16.02471797 -12.29087851 14.29087851 -10 12 C-10.66 11.01 -11.32 10.02 -12 9 C-11.8125 5.4375 -11.8125 5.4375 -11 2 C-7.18977687 -0.54014875 -4.46529184 -0.58606955 0 0 Z M-6 4 C-6.33 5.32 -6.66 6.64 -7 8 C-5.02 8.99 -5.02 8.99 -3 10 C-2.67 8.35 -2.34 6.7 -2 5 C-3.32 4.67 -4.64 4.34 -6 4 Z M-7 16 C-7.66 16.66 -8.32 17.32 -9 18 C-8.67958603 20.60280568 -8.67958603 20.60280568 -8 23 C-4.41672247 24.00217064 -4.41672247 24.00217064 -1 23 C-1.5590888 19.75728494 -2.4132178 18.06942576 -5 16 C-5.66 16 -6.32 16 -7 16 Z " fill="currentColor" transform="translate(234,43)"/>
<path d="M0 0 C6.40140935 0.46555704 11.26769829 2.14711836 17 5 C16.34 6.32 15.68 7.64 15 9 C11.37 8.34 7.74 7.68 4 7 C3.34 8.65 2.68 10.3 2 12 C4.97 12.99 7.94 13.98 11 15 C11 16.32 11 17.64 11 19 C3.375 18.125 3.375 18.125 0 17 C-0.10957031 17.63808594 -0.21914063 18.27617188 -0.33203125 18.93359375 C-0.49058594 19.75988281 -0.64914062 20.58617188 -0.8125 21.4375 C-0.96332031 22.26121094 -1.11414063 23.08492187 -1.26953125 23.93359375 C-1.51058594 24.61550781 -1.75164062 25.29742187 -2 26 C-5 27 -5 27 -8 26 C-5.98231892 17.04346448 -3.21270045 8.58413242 0 0 Z " fill="currentColor" transform="translate(278,50)"/>
<path d="M0 0 C3.70245421 2.31940287 6.34321695 4.92234675 8 9 C8.3359375 11.1484375 8.3359375 11.1484375 8.375 13.375 C8.40335938 14.10460937 8.43171875 14.83421875 8.4609375 15.5859375 C7.77421511 19.18250053 6.350087 21.20407656 4 24 C0.546875 25.6796875 0.546875 25.6796875 -3.25 26.875 C-4.22453125 27.19210938 -4.22453125 27.19210938 -5.21875 27.515625 C-6.80651047 28.02931221 -8.40253325 28.51734293 -10 29 C-12.37145139 24.46347969 -13.94605478 19.70026128 -15.625 14.875 C-16.11226562 13.49634766 -16.11226562 13.49634766 -16.609375 12.08984375 C-17.06957031 10.77306641 -17.06957031 10.77306641 -17.5390625 9.4296875 C-17.81959473 8.62772949 -18.10012695 7.82577148 -18.38916016 6.99951172 C-19 5 -19 5 -19 3 C-5.90828523 -2.00881698 -5.90828523 -2.00881698 0 0 Z M-12 6 C-10.89061647 12.30596952 -9.06802099 17.37529486 -6 23 C-3.11688372 21.94263845 -0.49541838 20.80575634 2 19 C3.24285895 15.55125329 3.24285895 15.55125329 3 12 C3 11.278125 3 10.55625 3 9.8125 C1.25370163 6.64733421 -1.82699505 5.58650247 -5 4 C-7.35287614 4 -9.79373224 5.24893012 -12 6 Z " fill="currentColor" transform="translate(184,53)"/>
<path d="M0 0 C0 1.32 0 2.64 0 4 C-2.97 5.65 -5.94 7.3 -9 9 C-8.34 10.32 -7.68 11.64 -7 13 C-3.51329166 11.8905928 -0.22515763 10.73662334 3 9 C3.66 10.65 4.32 12.3 5 14 C1.04 15.98 1.04 15.98 -3 18 C-2.34 19.65 -1.68 21.3 -1 23 C2.63 21.35 6.26 19.7 10 18 C10.66 19.65 11.32 21.3 12 23 C9.71070947 24.17154293 7.41881638 25.33738074 5.125 26.5 C4.47402344 26.83386719 3.82304687 27.16773437 3.15234375 27.51171875 C-1.7734375 30 -1.7734375 30 -4 30 C-9.859375 19.74609375 -9.859375 19.74609375 -10.91992188 17.87841797 C-11.65267421 16.60405169 -12.399302 15.33758289 -13.15820312 14.07861328 C-16 9.31597222 -16 9.31597222 -16 6 C-13.9021477 4.79994469 -11.7979751 3.61497017 -9.6875 2.4375 C-8.79514648 1.92413086 -8.79514648 1.92413086 -7.88476562 1.40039062 C-3.33984375 -1.11328125 -3.33984375 -1.11328125 0 0 Z " fill="currentColor" transform="translate(152,64)"/>
<path d="M0 0 C3.25 1.875 3.25 1.875 6 4 C6.8971875 4.61875 6.8971875 4.61875 7.8125 5.25 C9.86295156 8.27171809 10.22134677 11.44580337 10 15 C8.56657032 19.30795443 6.50188463 23.05638684 3 26 C-0.8021072 27.70255001 -4.40436897 28.38134578 -8.484375 27.40625 C-11.90768091 26.019028 -14.44523324 24.55476676 -17.0625 21.9375 C-18.68269986 16.86087376 -19.42118475 11.01849923 -17.0859375 6.05859375 C-12.43688329 0.07481107 -7.23909506 -1.93904332 0 0 Z M-9 5 C-9 5.66 -9 6.32 -9 7 C-9.66 7 -10.32 7 -11 7 C-13.09972674 10.41205596 -13.33083127 13.0300247 -13 17 C-12.13574999 19.59275002 -11.43273517 20.67544863 -9.25 22.3125 C-6.11082448 23.27169252 -4.13830576 22.91533918 -1 22 C1.66190726 20.27335746 2.74566818 18.94764734 3.5703125 15.875 C4.11286626 12.36571612 4.33102543 9.82756357 3 6.5 C-0.73819717 3.69635212 -4.67294522 3.55764841 -9 5 Z " fill="currentColor" transform="translate(317,65)"/>
<path d="M0 0 C4.0526003 3.36279599 5.8202162 7.09429174 6.3125 12.3125 C5.79896359 18.3722296 2.68012641 21.53795339 -1.75 25.375 C-2.82718031 26.2575637 -3.9084143 27.13531695 -5 28 C-9.67036129 24.26371097 -13.88782373 20.20776539 -18 15.875 C-18.5050708 15.3603418 -19.0101416 14.84568359 -19.53051758 14.31542969 C-22.99679753 10.59352437 -22.99679753 10.59352437 -23.01171875 7.828125 C-20.60788184 3.48451236 -16.44238355 0.75254794 -12.125 -1.5 C-7.72626587 -2.20379746 -4.10885554 -1.74796617 0 0 Z M-15 6 C-15.9910695 7.87050733 -15.9910695 7.87050733 -16 10 C-14.69104355 11.87889131 -14.69104355 11.87889131 -12.75 13.5 C-10.20300821 15.86397442 -7.96486583 18.11049143 -6 21 C-2.34683329 19.75023244 -1.21934164 19.32901247 1 16 C1.36694492 12.62410674 1.16375029 10.42382427 -0.0625 7.25 C-4.51329317 2.08133696 -9.68712401 2.20508858 -15 6 Z " fill="currentColor" transform="translate(128,87)"/>
<path d="M0 0 C8.91915373 7.81179145 18.40529948 16.33833383 24.86450195 26.35009766 C24.86450195 27.34009766 24.86450195 28.33009766 24.86450195 29.35009766 C25.52450195 29.35009766 26.18450195 29.35009766 26.86450195 29.35009766 C38.36861477 49.08811864 47.53783768 68.54965255 50.86450195 91.35009766 C51.03506104 92.42984863 51.20562012 93.50959961 51.38134766 94.62207031 C54.71989996 120.3824006 51.36074925 146.29812704 41.86450195 170.35009766 C41.53708008 171.26662109 41.2096582 172.18314453 40.87231445 173.12744141 C38.10752059 180.67557331 33.95882032 187.46458073 29.86450195 194.35009766 C29.32954102 195.31302734 28.79458008 196.27595703 28.2434082 197.26806641 C27.78836914 197.95513672 27.33333008 198.64220703 26.86450195 199.35009766 C26.20450195 199.35009766 25.54450195 199.35009766 24.86450195 199.35009766 C24.65825195 200.01009766 24.45200195 200.67009766 24.23950195 201.35009766 C22.37325943 205.42189952 19.88888668 209.03806764 16.86450195 212.35009766 C16.20450195 212.35009766 15.54450195 212.35009766 14.86450195 212.35009766 C14.61700195 212.90697266 14.36950195 213.46384766 14.11450195 214.03759766 C10.88617934 220.00999449 5.98789742 224.05174202 0.86450195 228.35009766 C-0.08424805 229.15447266 -1.03299805 229.95884766 -2.01049805 230.78759766 C-4.13549805 232.35009766 -4.13549805 232.35009766 -6.13549805 232.35009766 C-6.13549805 233.01009766 -6.13549805 233.67009766 -6.13549805 234.35009766 C-26.46857796 249.66344846 -52.63034226 260.36106106 -78.13549805 261.35009766 C-78.87396973 261.38570801 -79.61244141 261.42131836 -80.37329102 261.45800781 C-113.69387882 262.8811257 -148.87864861 252.66031466 -174.13549805 230.35009766 C-174.87799805 229.82416016 -175.62049805 229.29822266 -176.38549805 228.75634766 C-177.25174805 228.06025391 -177.25174805 228.06025391 -178.13549805 227.35009766 C-178.13549805 226.69009766 -178.13549805 226.03009766 -178.13549805 225.35009766 C-178.96307617 225.00978516 -178.96307617 225.00978516 -179.80737305 224.66259766 C-182.82242222 222.96283839 -184.94780174 220.8020495 -187.38549805 218.35009766 C-188.72354492 217.01978516 -188.72354492 217.01978516 -190.08862305 215.66259766 C-192.13549805 213.35009766 -192.13549805 213.35009766 -192.13549805 211.35009766 C-193.12549805 211.02009766 -194.11549805 210.69009766 -195.13549805 210.35009766 C-196.55834961 208.68286133 -196.55834961 208.68286133 -198.02612305 206.51806641 C-198.56736816 205.7259375 -199.10861328 204.93380859 -199.66625977 204.11767578 C-200.2336084 203.26625 -200.80095703 202.41482422 -201.38549805 201.53759766 C-202.26165771 200.23145508 -202.26165771 200.23145508 -203.15551758 198.89892578 C-204.8274659 196.39030491 -206.48374949 193.87204857 -208.13549805 191.35009766 C-208.84963867 190.27373047 -209.5637793 189.19736328 -210.29956055 188.08837891 C-215.69833522 179.44787423 -218.9235033 169.96518408 -222.13549805 160.35009766 C-222.53897461 159.15255859 -222.94245117 157.95501953 -223.3581543 156.72119141 C-234.12596563 122.04310699 -231.13722442 81.72586298 -214.81835938 49.19580078 C-213.02849446 45.84775101 -211.11058374 42.59146123 -209.13549805 39.35009766 C-208.77875 38.74311035 -208.42200195 38.13612305 -208.05444336 37.51074219 C-202.40763899 27.9194409 -195.63934992 19.54837379 -188.13549805 11.35009766 C-187.32338867 10.45419922 -186.5112793 9.55830078 -185.67456055 8.63525391 C-137.27582841 -42.25577174 -52.66021089 -45.07443637 0 0 Z M-177.8815918 9.30712891 C-180.13549805 11.35009766 -180.13549805 11.35009766 -182.6472168 13.29150391 C-206.36564602 32.91412903 -219.80892966 68.62493582 -223.13549805 98.35009766 C-223.44435713 103.4969527 -223.5250933 108.63284866 -223.51049805 113.78759766 C-223.51028656 114.48231171 -223.51007507 115.17702576 -223.50985718 115.89279175 C-223.39575206 153.68754487 -208.74269386 188.7256527 -182.5065918 216.09228516 C-180.40542156 218.09307 -178.79419481 219.2669249 -176.13549805 220.35009766 C-176.13549805 221.01009766 -176.13549805 221.67009766 -176.13549805 222.35009766 C-174.69006867 223.70026735 -174.69006867 223.70026735 -172.76049805 225.03759766 C-172.02831055 225.56740234 -171.29612305 226.09720703 -170.54174805 226.64306641 C-169.74768555 227.20638672 -168.95362305 227.76970703 -168.13549805 228.35009766 C-167.34143555 228.92373047 -166.54737305 229.49736328 -165.72924805 230.08837891 C-152.4598378 239.55753084 -138.65935117 246.7353724 -122.94799805 251.16259766 C-122.26092773 251.35732666 -121.57385742 251.55205566 -120.8659668 251.75268555 C-110.01156811 254.63779082 -99.15625713 255.71881412 -87.94799805 255.66259766 C-86.77325928 255.65768311 -85.59852051 255.65276855 -84.38818359 255.64770508 C-74.72320429 255.51864455 -65.52425542 254.65157737 -56.13549805 252.35009766 C-55.47614258 252.18912598 -54.81678711 252.0281543 -54.13745117 251.86230469 C-42.48565203 248.88061272 -31.85178471 243.72053031 -21.13549805 238.35009766 C-21.13549805 237.69009766 -21.13549805 237.03009766 -21.13549805 236.35009766 C-20.43424805 236.10259766 -19.73299805 235.85509766 -19.01049805 235.60009766 C-15.74853876 234.18185449 -13.04393109 232.39218894 -10.13549805 230.35009766 C-8.95987305 229.54572266 -8.95987305 229.54572266 -7.76049805 228.72509766 C-7.22424805 228.27134766 -6.68799805 227.81759766 -6.13549805 227.35009766 C-6.13549805 226.69009766 -6.13549805 226.03009766 -6.13549805 225.35009766 C-5.43424805 225.14384766 -4.73299805 224.93759766 -4.01049805 224.72509766 C-0.33376446 222.96665985 2.33745274 220.54581625 4.86450195 217.35009766 C4.86450195 216.69009766 4.86450195 216.03009766 4.86450195 215.35009766 C5.4368457 215.12064453 6.00918945 214.89119141 6.59887695 214.65478516 C14.99582548 209.819301 20.78455117 198.3467151 25.86450195 190.35009766 C26.41106445 189.50576172 26.95762695 188.66142578 27.52075195 187.79150391 C31.41011799 181.59034632 34.1655273 175.13788441 36.86450195 168.35009766 C37.3543457 167.29177734 37.84418945 166.23345703 38.34887695 165.14306641 C40.32911683 160.53886711 41.35296499 155.73070381 42.42700195 150.85009766 C42.64316162 149.87250488 42.85932129 148.89491211 43.08203125 147.88769531 C47.81712079 125.99713681 47.90508614 105.35132523 43.86450195 83.35009766 C43.74123535 82.6549707 43.61796875 81.95984375 43.4909668 81.24365234 C40.89658872 67.27499288 35.33541714 50.14533573 25.86450195 39.35009766 C24.99287704 37.89316647 24.15677016 36.41416003 23.36450195 34.91259766 C20.12350061 28.95429336 16.73412229 24.10094676 11.86450195 19.35009766 C11.06012695 18.36009766 10.25575195 17.37009766 9.42700195 16.35009766 C6.79698964 13.27105885 4.00199855 10.89931364 0.86450195 8.35009766 C0.10008789 7.57408203 -0.66432617 6.79806641 -1.4519043 5.99853516 C-15.31342442 -7.681393 -31.94406138 -15.505085 -50.13549805 -21.64990234 C-51.09456055 -21.99021484 -52.05362305 -22.33052734 -53.04174805 -22.68115234 C-95.70106294 -36.90092398 -146.13294668 -20.18526732 -177.8815918 9.30712891 Z " fill="currentColor" transform="translate(318.135498046875,117.64990234375)"/>
<path d="M0 0 C3.25 1.8125 3.25 1.8125 6 4 C6.598125 4.45375 7.19625 4.9075 7.8125 5.375 C9.55054016 7.75337074 9.68005856 10.12052705 10 13 C8.35 13.33 6.7 13.66 5 14 C2 8.25 2 8.25 2 6 C-3.88389422 5.604477 -3.88389422 5.604477 -9 8 C-11.01644692 10.69938168 -11.01644692 10.69938168 -12 14 C-11.24554783 17.56650118 -10.58006277 19.41993723 -8 22 C-6.35008418 22.70710678 -4.68437744 23.37943989 -3 24 C-3.33 25.65 -3.66 27.3 -4 29 C-9.61093977 27.19308719 -13.14444605 25.67339872 -17 21 C-18.5446194 16.36614181 -18.48978632 12.53058226 -17 7.875 C-12.89374715 1.97226153 -7.27895337 -1.21315889 0 0 Z " fill="currentColor" transform="translate(347,87)"/>
<path d="M0 0 C1.32 0.66 2.64 1.32 4 2 C3.87109375 3.75390625 3.87109375 3.75390625 3 6 C0.04242747 8.19095579 -3.05915301 10.01043381 -6.21484375 11.90234375 C-9.20735271 14.15616887 -10.1031765 15.41270602 -11 19 C-10.71260075 21.24240782 -10.71260075 21.24240782 -10 23 C-2.71910793 23 0.93992816 20.19531647 6.484375 15.6171875 C9 14 9 14 11.265625 14.0703125 C13 15 13 15 14 18 C11.89605554 19.45865479 9.7918536 20.91693566 7.6875 22.375 C7.09259766 22.7875 6.49769531 23.2 5.88476562 23.625 C-2.78646361 29.63188506 -2.78646361 29.63188506 -9 29 C-13.03379567 26.86893814 -15.29088751 25.21063168 -17 21 C-17.73164798 17.61200845 -17.43566273 15.16041796 -16 12 C-11.98266075 8.15804255 -7.61840702 5.07699914 -3 2 C-2.01 1.34 -1.02 0.68 0 0 Z " fill="currentColor" transform="translate(368,110)"/>
<path d="M0 0 C3.18750407 2.18092383 3.87868068 3.47428296 4.75 7.25 C4.87375 8.61125 4.87375 8.61125 5 10 C8.96 10.33 12.92 10.66 17 11 C16.01 12.65 15.02 14.3 14 16 C11.08203125 16.48828125 11.08203125 16.48828125 7.8125 16.3125 C6.72582031 16.26738281 5.63914062 16.22226563 4.51953125 16.17578125 C3.68808594 16.11777344 2.85664062 16.05976562 2 16 C2 16.99 2 17.98 2 19 C4.44496043 20.71711243 4.44496043 20.71711243 7 22 C6.67 23.32 6.34 24.64 6 26 C1.07400268 26 -0.07045258 24.75104249 -3.875 21.75 C-7.83153332 18.65358262 -11.79282931 15.73780063 -16 13 C-15.49396008 10.83125748 -15.00016187 9.00032373 -14 7 C-13.34 7 -12.68 7 -12 7 C-11.731875 6.21625 -11.46375 5.4325 -11.1875 4.625 C-8.8249053 -0.59757776 -5.21439589 -0.54888378 0 0 Z M-6 5 C-7.485 6.98 -7.485 6.98 -9 9 C-8.34 10.32 -7.68 11.64 -7 13 C-6.34 13 -5.68 13 -5 13 C-5 13.66 -5 14.32 -5 15 C-4.34 15 -3.68 15 -3 15 C-1.19546354 13.3450486 -1.19546354 13.3450486 0 11 C-0.22197813 8.3015411 -0.22197813 8.3015411 -1 6 C-2.65 5.67 -4.3 5.34 -6 5 Z " fill="currentColor" transform="translate(98,111)"/>
<path d="M0 0 C8.43289446 1.22560505 15.42406202 4.21203101 23 8 C22.01 6.02 22.01 6.02 21 4 C24.5589345 4.68991165 27.39240746 6.14115347 30.5625 7.875 C31.51253906 8.38804688 32.46257812 8.90109375 33.44140625 9.4296875 C36 11 36 11 39 14 C38.01 9.545 38.01 9.545 37 5 C44.97159947 11.01937103 49.86199076 18.9937446 54 28 C57.52237988 23.26300637 59.34292168 18.64913063 61 13 C61.99 13.99 61.99 13.99 63 15 C62.9765625 17.1640625 62.9765625 17.1640625 62.625 19.625 C62.51414062 20.44226563 62.40328125 21.25953125 62.2890625 22.1015625 C62.19367188 22.72804687 62.09828125 23.35453125 62 24 C63.04800781 23.44119141 63.04800781 23.44119141 64.1171875 22.87109375 C65.02726562 22.39800781 65.93734375 21.92492187 66.875 21.4375 C67.77992188 20.96183594 68.68484375 20.48617187 69.6171875 19.99609375 C70.79667969 19.50302734 70.79667969 19.50302734 72 19 C72.66 19.33 73.32 19.66 74 20 C70.535 23.96 70.535 23.96 67 28 C68.093125 27.95875 69.18625 27.9175 70.3125 27.875 C74 28 74 28 77 30 C75.63016497 33.16115776 75.0109362 33.9927092 72 36 C72.99 36.33 73.98 36.66 75 37 C75 38.32 75 39.64 75 41 C76.0725 41.556875 77.145 42.11375 78.25 42.6875 C81.64916555 44.6111657 83.75395721 46.76569838 86 50 C84 51 84 51 82 51 C82.33 52.65 82.66 54.3 83 56 C82.34 56 81.68 56 81 56 C81.20496094 56.53109375 81.40992188 57.0621875 81.62109375 57.609375 C81.89050781 58.31578125 82.15992188 59.0221875 82.4375 59.75 C82.70433594 60.44609375 82.97117187 61.1421875 83.24609375 61.859375 C84.62902445 65.78603834 85.117471 69.07220363 85.0625 73.25 C85.05347656 74.14203125 85.04445313 75.0340625 85.03515625 75.953125 C85.01775391 76.96632812 85.01775391 76.96632812 85 78 C84.34 78 83.68 78 83 78 C83.061875 79.216875 83.12375 80.43375 83.1875 81.6875 C83.21774505 87.99863441 81.57698636 93.92672515 80 100 C79.34 100 78.68 100 78 100 C77.75765625 98.92363281 77.5153125 97.84726563 77.265625 96.73828125 C73.99809977 81.35482975 73.99809977 81.35482975 68.37890625 66.76171875 C67 64 67 64 67 62 C66.34 62 65.68 62 65 62 C63.64724412 60.27538265 62.36665285 58.49375349 61.125 56.6875 C57.7689916 51.58263824 57.7689916 51.58263824 53 48 C50.09988272 47.73216395 47.45309326 47.62578793 44.5625 47.6875 C43.81162109 47.68427734 43.06074219 47.68105469 42.28710938 47.67773438 C38.03481528 47.71887354 34.91942964 48.21131483 31 50 C29 50 27 50 25 50 C21.72435637 50.92414941 21.72435637 50.92414941 19 52 C19 52.66 19 53.32 19 54 C8.70477308 55.634163 1.03725873 53.14465861 -8.68408203 49.76513672 C-16.11932382 47.00496499 -16.11932382 47.00496499 -23.5625 48.5625 C-27.89544147 50.67195835 -29.60493668 52.75069411 -32 57 C-32.61746094 57.76054687 -33.23492187 58.52109375 -33.87109375 59.3046875 C-43.52371701 71.24206012 -44.77207841 86.26533673 -47 101 C-45.77925781 100.67515625 -44.55851563 100.3503125 -43.30078125 100.015625 C-37.26619805 98.68011216 -31.34407585 98.70712193 -25.1875 98.75 C-24.08857422 98.74226563 -22.98964844 98.73453125 -21.85742188 98.7265625 C-12.90969039 98.7476532 -3.960594 99.31752449 4.4375 102.625 C12.08460652 105.35015069 20.3089852 105.05437578 27.6796875 101.80078125 C42.69706992 96.61801459 62.68247987 97.74351934 78 101 C78.99 101.66 79.98 102.32 81 103 C81.80699088 108.46960486 81.80699088 108.46960486 81 111 C79.50836186 112.18224616 78.01518352 113.36270986 76.50805664 114.52514648 C73.80127151 117.17233589 73.00803377 120.57380338 71.9375 124.125 C69.72600642 131.40914799 69.72600642 131.40914799 66.62890625 133.9296875 C60.58256986 136.391346 54.55220898 136.18325482 48.125 136.1875 C47.15691406 136.19974609 46.18882812 136.21199219 45.19140625 136.22460938 C32.92783648 136.24963707 32.92783648 136.24963707 27.92578125 132.40625 C23.6426873 127.34535449 19 120.92711185 19 114 C15.66042692 113.69857084 15.66042692 113.69857084 12 115 C10.41831503 117.32733646 9.37429414 119.70741606 8.25 122.28515625 C6.1853226 126.76937747 3.42895943 131.28544041 -0.66015625 134.171875 C-10.43390681 137.63103213 -25.19897637 136.91566764 -35 134 C-37.91210423 131.74163346 -38.55376281 131.11770804 -40 128 C-40.45890625 127.01257813 -40.9178125 126.02515625 -41.390625 125.0078125 C-45 116.73798077 -45 116.73798077 -45 114 C-45.66 114 -46.32 114 -47 114 C-47 113.34 -47 112.68 -47 112 C-48.32 111.67 -49.64 111.34 -51 111 C-51 106.33333333 -51 101.66666667 -51 97 C-51.62297484 94.22998686 -52.28227574 91.49481034 -53 88.75 C-53.19078125 88.00492187 -53.3815625 87.25984375 -53.578125 86.4921875 C-54.04782412 84.66036095 -54.52334154 82.830028 -55 81 C-55.33 81 -55.66 81 -56 81 C-55.91621094 80.26394531 -55.83242187 79.52789062 -55.74609375 78.76953125 C-55.64425781 77.79371094 -55.54242188 76.81789063 -55.4375 75.8125 C-55.33308594 74.84957031 -55.22867188 73.88664062 -55.12109375 72.89453125 C-54.88560131 70.03511858 -54.88560131 70.03511858 -55.5234375 67.421875 C-56.04887018 64.75164333 -55.82299611 63.06635081 -55.1875 60.4375 C-55.01605469 59.69371094 -54.84460938 58.94992188 -54.66796875 58.18359375 C-53.98996353 55.96719072 -53.09547465 54.03841485 -52 52 C-52.66 52 -53.32 52 -54 52 C-54.66 53.32 -55.32 54.64 -56 56 C-56.92075222 53.4909502 -57.09121531 52.27934687 -56.25 49.703125 C-53.19293378 43.70363255 -49.68671856 38.83528889 -45 34 C-45.66 33.67 -46.32 33.34 -47 33 C-45.60667426 29.63279613 -44.0210714 28.0140476 -41 26 C-45.33273814 25.07155611 -48.66726186 25.07155611 -53 26 C-51.49921893 22.17982999 -49.40816719 20.24629201 -46 18 C-42.6875 17.25 -42.6875 17.25 -40 17 C-40 16.34 -40 15.68 -40 15 C-41.65 15 -43.3 15 -45 15 C-41.567177 11.16331547 -39.06517613 9.09248897 -34 8 C-31.30782565 7.85881907 -28.69988904 7.90690038 -26 8 C-26 7.34 -26 6.68 -26 6 C-28.475 5.505 -28.475 5.505 -31 5 C-31 4.67 -31 4.34 -31 4 C-22.67786561 3.53694461 -16.26183265 3.71289398 -9 8 C-8.37867188 8.35835937 -7.75734375 8.71671875 -7.1171875 9.0859375 C-5.4375 10.125 -5.4375 10.125 -3 12 C-3 12.66 -3 13.32 -3 14 C-2.34 14 -1.68 14 -1 14 C-3.89908348 9.77216992 -7.03392637 7.52788188 -11.390625 5.015625 C-11.92171875 4.68046875 -12.4528125 4.3453125 -13 4 C-13 3.67 -13 3.34 -13 3 C-11.51886719 3.10828125 -11.51886719 3.10828125 -10.0078125 3.21875 C-8.72648437 3.3115625 -7.44515625 3.404375 -6.125 3.5 C-4.84882813 3.5928125 -3.57265625 3.685625 -2.2578125 3.78125 C-0.50763316 3.89876804 1.24587965 4 3 4 C2.01 2.68 1.02 1.36 0 0 Z M-1 14 C-1 14.66 -1 15.32 -1 16 C-0.34 15.67 0.32 15.34 1 15 C0.34 14.67 -0.32 14.34 -1 14 Z M-39 109 C-39.78426941 115.75678257 -38.89803246 123.1088723 -34.74609375 128.68359375 C-28.47103525 133.41445441 -16.89479839 132.51486027 -9.36328125 131.72265625 C-5.3370082 131.10549031 -2.70964019 130.60046477 0.4375 127.9375 C3.06829501 122.99160538 6.14049604 116.70248018 5 111 C2.33713833 106.9478192 -0.81089393 106.33185837 -5.28735352 105.40356445 C-10.42761656 104.63883987 -15.5628657 104.67222575 -20.75 104.6875 C-21.85988281 104.67138672 -22.96976563 104.65527344 -24.11328125 104.63867188 C-25.18449219 104.63802734 -26.25570312 104.63738281 -27.359375 104.63671875 C-28.80521973 104.63224731 -28.80521973 104.63224731 -30.28027344 104.62768555 C-33.78501147 105.10746342 -36.48203127 106.48203127 -39 109 Z M26.75 108.5625 C24.78590654 111.2982016 24.73078006 112.00393822 24.9375 115.25 C25.91860958 120.85898494 27.86826909 125.93488568 32 129.9375 C37.1399134 132.66807899 42.70257588 132.21891822 48.375 132.25 C49.30828125 132.270625 50.2415625 132.29125 51.203125 132.3125 C56.55650366 132.34283076 60.40347822 132.07167883 65 129 C68.44278817 124.37004349 69.16580588 120.11224625 69.3125 114.4375 C69.34988281 113.48746094 69.38726562 112.53742188 69.42578125 111.55859375 C69.2363884 108.89401855 69.2363884 108.89401855 67.23046875 107.22265625 C56.9777261 101.60250135 36.86918957 103.69750501 26.75 108.5625 Z " fill="currentColor" transform="translate(218,112)"/>
<path d="M0 0 C9.78264757 0.47720232 19.33696657 1.29573212 29 3 C28.34 4.65 27.68 6.3 27 8 C24.36 8 21.72 8 19 8 C18.566875 9.3921875 18.566875 9.3921875 18.125 10.8125 C17 14 17 14 15 17 C15.66 17 16.32 17 17 17 C18.625 19.5 18.625 19.5 20 22 C19.34 22.99 18.68 23.98 18 25 C17.01 25 16.02 25 15 25 C15 24.34 15 23.68 15 23 C14.34 23 13.68 23 13 23 C9 18.52941176 9 18.52941176 9 16 C8.34 16 7.68 16 7 16 C7 15.34 7 14.68 7 14 C6.01 13.67 5.02 13.34 4 13 C2.32421875 11.58203125 2.32421875 11.58203125 0.6875 9.8125 C0.13449219 9.24144531 -0.41851562 8.67039063 -0.98828125 8.08203125 C-2 6 -2 6 -1.16796875 2.76171875 C-0.78253906 1.85035156 -0.39710937 0.93898437 0 0 Z M6 6 C8.475 9.465 8.475 9.465 11 13 C13.7839183 11.60804085 13.97898997 9.84424221 15 7 C12.04335481 5.5216774 9.25770263 5.93967217 6 6 Z " fill="currentColor" transform="translate(69,143)"/>
<path d="M0 0 C3.67781877 3.27805586 4.75412411 4.94624621 5.875 9.75 C6 13 6 13 5 15 C3.68 15 2.36 15 1 15 C0.9175 13.88625 0.835 12.7725 0.75 11.625 C0.42126213 7.94246056 0.42126213 7.94246056 -2.0625 6.5625 C-2.701875 6.376875 -3.34125 6.19125 -4 6 C-4.96965599 8.90896796 -4.95011864 10.78563145 -4.75 13.9375 C-4.71796375 17.36537891 -4.98401563 17.97675 -7.0625 21 C-10.64657432 23.44022082 -12.74981621 23.41668469 -17 23 C-17 22.34 -17 21.68 -17 21 C-17.99 20.67 -18.98 20.34 -20 20 C-22.08845462 16.92955679 -22.22107559 14.40087249 -22.125 10.75 C-22.09792969 9.41195312 -22.09792969 9.41195312 -22.0703125 8.046875 C-22.04710937 7.37140625 -22.02390625 6.6959375 -22 6 C-20.68 6.33 -19.36 6.66 -18 7 C-17.34 9.97 -16.68 12.94 -16 16 C-14.68 16.33 -13.36 16.66 -12 17 C-11.08431474 14.25294422 -10.98244981 11.86046005 -11.0625 9 C-11.10394511 5.82056787 -10.91591205 3.66098896 -9 1 C-5.82121306 -0.58939347 -3.5043228 -0.41576711 0 0 Z " fill="currentColor" transform="translate(390,143)"/>
<path d="M0 0 C1.32 0.33 2.64 0.66 4 1 C3.69106068 2.6256807 3.3777305 4.25052748 3.0625 5.875 C2.88847656 6.77992188 2.71445312 7.68484375 2.53515625 8.6171875 C2 11 2 11 1 13 C2.98 13 4.96 13 7 13 C7.99 10.36 8.98 7.72 10 5 C11.32 5.33 12.64 5.66 14 6 C13.34 8.97 12.68 11.94 12 15 C13.98 15.99 15.96 16.98 18 18 C18.99 14.04 19.98 10.08 21 6 C22.65 6.66 24.3 7.32 26 8 C24.35 13.28 22.7 18.56 21 24 C12.32633657 22.53214927 4.27902924 19.89214088 -4 17 C-5.40843182 12.45422306 -4.4862514 9.95728968 -2.5625 5.6875 C-1.85287109 4.08455078 -1.85287109 4.08455078 -1.12890625 2.44921875 C-0.75636719 1.64097656 -0.38382813 0.83273438 0 0 Z " fill="currentColor" transform="translate(58,168)"/>
<path d="M0 0 C4.40774487 11.52164009 4.40774487 11.52164009 5 17 C3.35 17.33 1.7 17.66 0 18 C-1.19287411 14.12315913 -2 11.08378077 -2 7 C-3.98 7.66 -5.96 8.32 -8 9 C-7.34 11.97 -6.68 14.94 -6 18 C-7.65 18.33 -9.3 18.66 -11 19 C-11.99 16.03 -12.98 13.06 -14 10 C-15.98 10.33 -17.96 10.66 -20 11 C-18.68 14.63 -17.36 18.26 -16 22 C-16.66 22.66 -17.32 23.32 -18 24 C-19.32 23.67 -20.64 23.34 -22 23 C-23.32 17.72 -24.64 12.44 -26 7 C-23.2775 6.3503125 -23.2775 6.3503125 -20.5 5.6875 C-15.48566148 4.4398285 -10.80317765 2.88696265 -6 1 C-3.89497167 0.41090625 -2.188131 0 0 0 Z " fill="currentColor" transform="translate(403,171)"/>
<path d="M0 0 C0.99 0.66 1.98 1.32 3 2 C3 1.34 3 0.68 3 0 C9.625 -1.125 9.625 -1.125 13 0 C15.76982368 2.56465156 15.99911448 3.98919669 16.3125 7.8125 C16.28820177 11.74071462 15.13228638 15.26029717 14 19 C-4.34042553 18.19148936 -4.34042553 18.19148936 -13 16 C-12.77178654 13.72687382 -12.5166633 11.45643691 -12.25 9.1875 C-12.11078125 7.92292969 -11.9715625 6.65835938 -11.828125 5.35546875 C-11 2 -11 2 -9.14453125 0.0390625 C-5.8681531 -1.54839941 -3.46384904 -0.81872796 0 0 Z M-7 5 C-7.74664647 7.97980236 -7.74664647 7.97980236 -8 11 C-6.87465895 12.35618499 -6.87465895 12.35618499 -3.9375 12.0625 C-2.968125 12.041875 -1.99875 12.02125 -1 12 C-0.3121764 9.64632287 -0.3121764 9.64632287 0 7 C-0.66 6.01 -1.32 5.02 -2 4 C-4.9254644 3.7763932 -4.9254644 3.7763932 -7 5 Z M6 4 C3.23776722 6.76223278 3.42143709 9.20706617 3 13 C5.31 13.33 7.62 13.66 10 14 C11.38125018 11.23749964 11.19079306 9.05268901 11 6 C10.34 5.34 9.68 4.68 9 4 C8.01 4 7.02 4 6 4 Z " fill="currentColor" transform="translate(60,201)"/>
<path d="M0 0 C1.75319223 14.04666061 1.75319223 14.04666061 -2 20 C-5.55526937 23.44058326 -8.61756245 23.89945909 -13.4375 24.25 C-18.58546877 23.88873903 -20.75496575 22.31420281 -24.25 18.625 C-27.30430335 13.79723018 -26.83594243 7.52874004 -27 2 C-17.96301675 0.8258212 -9.13338455 -0.28994872 0 0 Z M-22 7 C-21.67816308 10.347104 -21.28066756 13.31587282 -20 16.4375 C-17.14426677 18.66854159 -14.78131749 18.56036241 -11.23046875 18.375 C-7.73227219 17.78686187 -6.17037857 16.80048848 -4 14 C-3.59358635 11.19788482 -3.76197794 8.85626477 -4 6 C-10.11090483 5.90054585 -15.97403427 5.9287172 -22 7 Z " fill="currentColor" transform="translate(411,203)"/>
<path d="M0 0 C1.9375 2.25 1.9375 2.25 3 5 C2.375 8.1875 2.375 8.1875 1 11 C-2 13 -2 13 -5.5 12.875 C-9 12 -9 12 -11 10.375 C-12.44116288 6.95223815 -11.85557966 4.55394628 -11 1 C-7.36218844 -2.63781156 -4.41581231 -2.49097104 0 0 Z " fill="currentColor" transform="translate(69,260)"/>
<path d="M0 0 C2.84223083 2.29212163 2.98284286 3.87990001 3.5 7.5 C3 11 3 11 0.875 13.5 C-2 15 -2 15 -5.125 15 C-8.46294538 13.83897552 -9.4614746 13.16252443 -11 10 C-11.52755517 6.38247881 -11.45932313 4.69817115 -9.4375 1.625 C-6.07941451 -0.61372366 -3.95254396 -0.57491549 0 0 Z " fill="currentColor" transform="translate(398,263)"/>
<path d="M0 0 C0.33 0 0.66 0 1 0 C2.76379617 17.69190756 3.54256573 34.7042453 2.125 52.4375 C2.04668945 53.45199219 1.96837891 54.46648437 1.88769531 55.51171875 C1.80358398 56.4553125 1.71947266 57.39890625 1.6328125 58.37109375 C1.55949707 59.21599365 1.48618164 60.06089355 1.41064453 60.93139648 C1 63 1 63 -1 65 C-1.89239945 67.49414206 -2.72011292 69.97127523 -3.5 72.5 C-5.72972973 79.72972973 -5.72972973 79.72972973 -8 82 C-11.06247957 85.59049329 -13.44460404 89.32960912 -15.75390625 93.42578125 C-16.16511719 93.94527344 -16.57632813 94.46476562 -17 95 C-17.99 95 -18.98 95 -20 95 C-21.66207596 96.67294115 -21.66207596 96.67294115 -23.25 98.8125 C-26.50174323 102.6982309 -29.19940959 104.23136143 -34 106 C-35.28469607 106.83317109 -36.55500354 107.68881772 -37.8125 108.5625 C-41.62928255 111.02827441 -45.11283616 111.88922486 -49.5703125 112.59375 C-51.77117993 112.9617407 -53.75233263 113.51811112 -55.875 114.1875 C-67.35317051 117.1383657 -79.14565121 112.6403643 -89.265625 107.6328125 C-91.9686222 106.01873703 -93.89054491 104.3204006 -96 102 C-96.66 102.66 -97.32 103.32 -98 104 C-100.04119788 102.38405168 -102.04072937 100.7143618 -104 99 C-104 98.34 -104 97.68 -104 97 C-104.66 97 -105.32 97 -106 97 C-107.35452384 95.24761272 -108.49941712 93.40217483 -109.68359375 91.53125 C-110.33521484 90.77328125 -110.33521484 90.77328125 -111 90 C-111.99 90 -112.98 90 -114 90 C-114.25394531 89.33613281 -114.50789062 88.67226563 -114.76953125 87.98828125 C-117.3117496 81.196969 -117.3117496 81.196969 -121 75 C-121.99 74.67 -122.98 74.34 -124 74 C-124.87890625 71.3828125 -124.87890625 71.3828125 -125.5625 68.125 C-126.35430744 64.41200467 -126.87442202 62.18836696 -129 59 C-129.59896265 55.97246525 -129.66757621 52.8917854 -129.8125 49.8125 C-129.85673096 48.87446533 -129.90096191 47.93643066 -129.9465332 46.9699707 C-130.2237075 37.81590564 -129.53373122 28.79272395 -128.6875 19.6875 C-128.5902916 18.60391708 -128.5902916 18.60391708 -128.49111938 17.4984436 C-128.30209416 15.4389094 -128.09789041 13.38158851 -127.88671875 11.32421875 C-127.76514404 10.12885498 -127.64356934 8.93349121 -127.51831055 7.7019043 C-127.34726807 6.81027588 -127.17622559 5.91864746 -127 5 C-126.34 4.67 -125.68 4.34 -125 4 C-124.89453857 4.64960693 -124.78907715 5.29921387 -124.68041992 5.96850586 C-124.19038938 8.95947362 -123.68902043 11.94843826 -123.1875 14.9375 C-123.02185547 15.95908203 -122.85621094 16.98066406 -122.68554688 18.03320312 C-121.62781786 24.27979149 -120.16722539 30.04478755 -118 36 C-117.34 36 -116.68 36 -116 36 C-115.67 37.98 -115.34 39.96 -115 42 C-114.01 41.505 -114.01 41.505 -113 41 C-112.34 44.96 -111.68 48.92 -111 53 C-110.01 53 -109.02 53 -108 53 C-107.34 54.32 -106.68 55.64 -106 57 C-105.34 57 -104.68 57 -104 57 C-103.67 57.99 -103.34 58.98 -103 60 C-102.05961941 58.46008874 -101.12284376 56.91797583 -100.1875 55.375 C-99.63191406 54.46105469 -99.07632813 53.54710937 -98.50390625 52.60546875 C-96.89339816 49.94537814 -96.89339816 49.94537814 -95.625 46.6875 C-93.2612472 42.77821652 -90.12739861 40.85809089 -86 39 C-83.67085177 38.63858045 -81.33746522 38.30300475 -79 38 C-77.515 36.948125 -77.515 36.948125 -76 35.875 C-73 34 -73 34 -69.4375 34.1875 C-67.37216785 34.67566942 -65.30887605 35.17278099 -63.25 35.6875 C-60.71980215 36.29267759 -60.71980215 36.29267759 -58 34 C-51.84459515 34.20181655 -49.12344146 35.54951902 -44 39 C-42.5304182 39.31876958 -41.04917483 39.58648525 -39.5625 39.8125 C-34.13594099 40.86309644 -31.26711048 43.66365337 -28 48 C-25.15557449 52.48710286 -23.53336838 56.66631625 -23 62 C-22.34 62 -21.68 62 -21 62 C-20.01 59.03 -20.01 59.03 -19 56 C-18.34 56 -17.68 56 -17 56 C-16.690625 55.21625 -16.38125 54.4325 -16.0625 53.625 C-15 51 -15 51 -14 49 C-13.9603287 47.33380554 -13.95615553 45.66608987 -14 44 C-13.01 43.67 -12.02 43.34 -11 43 C-10.19436362 40.89415562 -10.19436362 40.89415562 -9.8125 38.4375 C-9.65394531 37.61121094 -9.49539063 36.78492188 -9.33203125 35.93359375 C-9.22246094 35.29550781 -9.11289062 34.65742188 -9 34 C-8.01 34 -7.02 34 -6 34 C-5.83177734 32.43765625 -5.83177734 32.43765625 -5.66015625 30.84375 C-4.88917179 24.67587429 -3.63339693 18.59672945 -2.4375 12.5 C-2.08655273 10.69402344 -2.08655273 10.69402344 -1.72851562 8.8515625 C-1.15471185 5.90057163 -0.57847782 2.95007754 0 0 Z M-64 47 C-64.66 47.66 -65.32 48.32 -66 49 C-65.01 49.33 -64.02 49.66 -63 50 C-62.01 49.34 -61.02 48.68 -60 48 C-61.89179203 47.3185177 -61.89179203 47.3185177 -64 47 Z M-74 53 C-75.79013136 53.12786653 -77.58227977 53.22839114 -79.375 53.3125 C-83.8907138 53.65397568 -83.8907138 53.65397568 -87.6875 56.0625 C-88.120625 56.701875 -88.55375 57.34125 -89 58 C-88.34 58 -87.68 58 -87 58 C-87.20625 59.093125 -87.4125 60.18625 -87.625 61.3125 C-88.40346525 65.0838401 -88.40346525 65.0838401 -86 68 C-80.77396671 67.95501868 -80.77396671 67.95501868 -76.30859375 65.6328125 C-75.34284805 64.57881328 -74.4096021 63.4936389 -73.51953125 62.375 C-70.24059496 59.40794197 -65.51519371 59.79722317 -61.3125 59.9375 C-54.15425635 60.55841333 -50.02098439 64.12342445 -45 69 C-44.34 68.01 -43.68 67.02 -43 66 C-42.01 66.33 -41.02 66.66 -40 67 C-38.52952664 63.08936776 -38.52952664 63.08936776 -38 59 C-37.34 58.67 -36.68 58.34 -36 58 C-38.2271301 55.31134414 -39.43087108 54.11229792 -42.91015625 53.42578125 C-44.47056641 53.36970703 -44.47056641 53.36970703 -46.0625 53.3125 C-49.36242182 53.16973453 -51.85542634 53.04819122 -55 52 C-57.86448509 51.90347622 -60.69881075 51.86074097 -63.5625 51.875 C-64.73329102 51.86919922 -64.73329102 51.86919922 -65.92773438 51.86328125 C-70.09669875 51.76516735 -70.09669875 51.76516735 -74 53 Z M-80 67 C-79 69 -79 69 -79 69 Z " fill="currentColor" transform="translate(296,232)"/>
<path d="M0 0 C1.7936743 1.1217963 3.5848773 2.24754483 5.375 3.375 C6.37273437 4.00148438 7.37046875 4.62796875 8.3984375 5.2734375 C11 7 11 7 13 9 C12.625 11.125 12.625 11.125 12 13 C7.68607774 12.5206753 5.83430453 11.2542015 3 8 C1.02 8.99 1.02 8.99 -1 10 C-1 10.66 -1 11.32 -1 12 C0.95927063 13.7143618 2.95880212 15.38405168 5 17 C4.67 18.32 4.34 19.64 4 21 C0.88801935 19.50163895 -2.0534615 17.80066242 -5 16 C-5.66 16.66 -6.32 17.32 -7 18 C-6.79519136 20.62575186 -6.32776314 21.70131896 -4.37109375 23.484375 C-3.41396484 24.11085938 -3.41396484 24.11085938 -2.4375 24.75 C-1.79683594 25.17796875 -1.15617187 25.6059375 -0.49609375 26.046875 C-0.00238281 26.36140625 0.49132812 26.6759375 1 27 C0.34 27.33 -0.32 27.66 -1 28 C-1.33 28.99 -1.66 29.98 -2 31 C-7.17609824 27.71842138 -11.85989729 24.54075781 -16 20 C-13.59840718 16.22606843 -11.14849001 13.14849001 -8 10 C-6.74704769 8.45650803 -5.51740987 6.89378085 -4.3125 5.3125 C-1.06944444 1.06944444 -1.06944444 1.06944444 0 0 Z " fill="currentColor" transform="translate(125,355)"/>
<path d="M0 0 C3.46320053 3.3613417 6.5270468 6.81768684 9.47265625 10.64453125 C11.15827851 12.44251332 11.15827851 12.44251332 15 12 C15.33 12.99 15.66 13.98 16 15 C15.34 15 14.68 15 14 15 C14.99 16.98 15.98 18.96 17 21 C14.525 22.485 14.525 22.485 12 24 C11.34 23.01 10.68 22.02 10 21 C6.54074837 22.2491742 3.85306797 23.67527795 1 26 C-0.32 25.34 -1.64 24.68 -3 24 C-3.08681476 20.37515001 -3.14032721 16.75056557 -3.1875 13.125 C-3.21263672 12.09246094 -3.23777344 11.05992187 -3.26367188 9.99609375 C-3.27333984 9.00996094 -3.28300781 8.02382813 -3.29296875 7.0078125 C-3.31653442 5.64100342 -3.31653442 5.64100342 -3.34057617 4.24658203 C-3.22818604 3.50520996 -3.1157959 2.76383789 -3 2 C-2.01 1.34 -1.02 0.68 0 0 Z M1 9 C1 12.63 1 16.26 1 20 C2.65 19.01 4.3 18.02 6 17 C5.45773019 13.20411134 3.79872437 11.52788007 1 9 Z " fill="currentColor" transform="translate(331,357)"/>
<path d="M0 0 C4.73731534 -0.3267114 7.15178806 -0.43181699 11.4375 1.75 C13.93662944 3.94435756 14.76793596 4.75110346 15 8 C13.02 8.99 13.02 8.99 11 10 C10.236875 9.175 9.47375 8.35 8.6875 7.5 C6.24565858 4.65944803 6.24565858 4.65944803 3 5 C3.31445113 8.66859654 3.79634013 9.81124208 6.5625 12.375 C9 15 9 15 9.625 18.5625 C9 22 9 22 6.875 24.4375 C3.47952129 26.28286886 1.81229932 26.54461419 -2 26 C-5.94065706 24.4085808 -7.62072192 23.56891712 -10 20 C-10 18.68 -10 17.36 -10 16 C-8.68 15.67 -7.36 15.34 -6 15 C-5.443125 16.2065625 -5.443125 16.2065625 -4.875 17.4375 C-3.1890663 20.31172896 -3.1890663 20.31172896 0.1875 20.8125 C1.5796875 20.9053125 1.5796875 20.9053125 3 21 C2.03103565 17.30031792 0.93607901 14.73074481 -1.625 11.9375 C-4 9 -4 9 -4.3125 6.125 C-4.209375 5.42375 -4.10625 4.7225 -4 4 C-3.34 4 -2.68 4 -2 4 C-1.34 2.68 -0.68 1.36 0 0 Z " fill="currentColor" transform="translate(148,375)"/>
<path d="M0 0 C1.9375 1.0625 1.9375 1.0625 3 3 C3.1875 6.6875 3.1875 6.6875 3 10 C3.78375 10.12375 4.5675 10.2475 5.375 10.375 C8 11 8 11 10 13 C10.4375 16.3125 10.4375 16.3125 10 20 C7.8272578 22.63016161 6.05326212 24.47336894 3 26 C0.90625 25.94921875 0.90625 25.94921875 -1.5 25.6875 C-2.2940625 25.60886719 -3.088125 25.53023438 -3.90625 25.44921875 C-6 25 -6 25 -8 23 C-8.33870968 16.67741935 -8.33870968 16.67741935 -7 14 C-7.804375 13.87625 -8.60875 13.7525 -9.4375 13.625 C-10.283125 13.41875 -11.12875 13.2125 -12 13 C-13.40457737 10.19084526 -13.24895157 8.11189466 -13 5 C-9.93327599 -0.40327563 -5.86300053 -0.41878575 0 0 Z M-8 5 C-8 6.65 -8 8.3 -8 10 C-4.41672247 11.00217064 -4.41672247 11.00217064 -1 10 C-1 8.35 -1 6.7 -1 5 C-4.58327753 3.99782936 -4.58327753 3.99782936 -8 5 Z M-1.25 13.875 C-1.8275 14.24625 -2.405 14.6175 -3 15 C-3.16687448 17.41645782 -3.16687448 17.41645782 -3 20 C-2.34 20.66 -1.68 21.32 -1 22 C1.26274788 21.64644564 2.95088852 21.02455574 5 20 C5 18.35 5 16.7 5 15 C2.05590637 13.06403854 2.05590637 13.06403854 -1.25 13.875 Z " fill="currentColor" transform="translate(309,376)"/>
<path d="M0 0 C2.60453175 0.64438933 5.2086291 1.2904504 7.8125 1.9375 C8.55048828 2.11990234 9.28847656 2.30230469 10.04882812 2.49023438 C13.07060984 3.2422615 16.04456718 4.01485573 19 5 C19 6.65 19 8.3 19 10 C16.36 9.34 13.72 8.68 11 8 C10.67 9.32 10.34 10.64 10 12 C9.61296073 13.29992381 9.21552558 14.59679047 8.80859375 15.890625 C8.58623047 16.59960938 8.36386719 17.30859375 8.13476562 18.0390625 C7.90466797 18.76867187 7.67457031 19.49828125 7.4375 20.25 C7.08655273 21.36761719 7.08655273 21.36761719 6.72851562 22.5078125 C6.15337687 24.33886649 5.5768275 26.1694773 5 28 C3.35 27.67 1.7 27.34 0 27 C0.62057657 24.43635601 1.24629199 21.87415074 1.875 19.3125 C2.04902344 18.59126953 2.22304687 17.87003906 2.40234375 17.12695312 C3.35097866 13.27971155 4.40490841 9.64284431 6 6 C3.69 5.34 1.38 4.68 -1 4 C-0.67 2.68 -0.34 1.36 0 0 Z " fill="currentColor" transform="translate(175,385)"/>
<path d="M0 0 C4.29117901 2.3406431 6.0874077 5.26135362 7.5546875 9.78125 C8.33746458 13.68140247 8.2076919 17.20336378 7 21 C4.80176185 23.70552388 3.10443333 25.44778333 0 27 C-2.3329866 27.04022391 -4.66706666 27.04320247 -7 27 C-6.67 25.35 -6.34 23.7 -6 22 C-4.88625 21.773125 -3.7725 21.54625 -2.625 21.3125 C1.16038373 20.39376342 1.16038373 20.39376342 2.4375 17.375 C2.623125 16.59125 2.80875 15.8075 3 15 C2.319375 15.515625 1.63875 16.03125 0.9375 16.5625 C-2.92635729 18.45332378 -4.90081728 18.19248952 -9 17 C-11.89357127 14.40320527 -12.86089908 12.83460553 -13.5 9 C-12.88466097 5.30796584 -11.58383614 3.65983132 -9 1 C-5.89951072 -0.55024464 -3.42105782 -0.28992015 0 0 Z M-6 4 C-8.2491908 5.82703227 -8.2491908 5.82703227 -8.25 8.5 C-8.2491908 11.17296773 -8.2491908 11.17296773 -6 13 C-2.90073181 12.67801034 -2.90073181 12.67801034 0 12 C0.93423645 8.98968256 1.04449911 8.13349732 0 5 C-2.90073181 4.32198966 -2.90073181 4.32198966 -6 4 Z " fill="currentColor" transform="translate(279,388)"/>
<path d="M0 0 C1.21786614 6.98795036 2.29411026 13.94110263 3 21 C4.65 21 6.3 21 8 21 C8 22.32 8 23.64 8 25 C6.0852312 25.36428777 4.16807707 25.71605306 2.25 26.0625 C1.18265625 26.25972656 0.1153125 26.45695312 -0.984375 26.66015625 C-3.74771905 26.97156937 -5.40946617 26.8991416 -8 26 C-8 25.01 -8 24.02 -8 23 C-6.35 22.67 -4.7 22.34 -3 22 C-3.165 21.030625 -3.33 20.06125 -3.5 19.0625 C-4.13396273 14.70512237 -4.0896672 10.39369296 -4 6 C-5.65 6.66 -7.3 7.32 -9 8 C-9.33 6.68 -9.66 5.36 -10 4 C-4.5 0 -4.5 0 0 0 Z " fill="currentColor" transform="translate(248,394)"/>
<path d="M0 0 C2.125 0.9375 2.125 0.9375 4 2 C3.67 3.65 3.34 5.3 3 7 C1.35 6.67 -0.3 6.34 -2 6 C-2 4.35 -2 2.7 -2 1 C-1.34 0.67 -0.68 0.34 0 0 Z " fill="currentColor" transform="translate(202,412)"/>
</svg>
